<?xml version="1.0" encoding="UTF-8" standalone="no"?><!DOCTYPE svg PUBLIC "-//W3C//DTD SVG 1.1//EN" "http://www.w3.org/Graphics/SVG/1.1/DTD/svg11.dtd"><svg width="100%" height="100%" viewBox="0 0 800 200" version="1.1" xmlns="http://www.w3.org/2000/svg" xmlns:xlink="http://www.w3.org/1999/xlink" xml:space="preserve" xmlns:serif="http://www.serif.com/" style="fill-rule:evenodd;clip-rule:evenodd;stroke-linejoin:round;stroke-miterlimit:2;"><g><g><path d="M162.769,70.868l22.307,22.308l0,-22.308l-22.307,0Z" style="fill:#e52d2d;fill-rule:nonzero;"/><path d="M128.427,70.868l-29.097,0l36.917,36.918l-34.342,0l-36.917,-36.918l-30.919,0l36.918,36.918l-34.342,0l-31.884,-31.884c-0.379,0.934 -0.592,1.953 -0.592,3.023l0,100.249c0,5.588 4.53,10.118 10.118,10.118l160.671,0c5.588,0 10.118,-4.53 10.118,-10.118l0,-71.388l-19.732,0l-36.917,-36.918Z" style="fill:#e52d2d;fill-rule:nonzero;"/><path d="M154.641,10.708l-30.599,4.434l-31.243,41.828l30.6,-4.433l31.242,-41.829Z" style="fill:#e52d2d;fill-rule:nonzero;"/><path d="M90.055,20.066l-28.797,4.171l-31.243,41.829l28.797,-4.172l31.243,-41.828Z" style="fill:#e52d2d;fill-rule:nonzero;"/><path d="M182.963,35.766l-2.718,-18.76l-22.86,30.607l18.759,-2.718c4.404,-0.638 7.457,-4.724 6.819,-9.129Z" style="fill:#e52d2d;fill-rule:nonzero;"/><path d="M27.271,29.161l-19.511,2.827c-4.403,0.638 -7.456,4.725 -6.818,9.129l2.481,17.122l0.346,2.389l8.072,-10.808l15.43,-20.659Z" style="fill:#e52d2d;fill-rule:nonzero;"/></g><g transform="matrix(1.50262,0,0,1.50262,-340.809,-214.943)"><g transform="matrix(113.08,0,0,113.08,390,252)"><path d="M0.084,0l0,-0.75l0.037,0l0.463,0.416l0,-0.416l0.083,0l0,0.75l-0.038,0l-0.462,-0.416l0,0.416l-0.083,0Z" style="fill:#fff;fill-rule:nonzero;"/></g><g transform="matrix(113.08,0,0,113.08,474.81,252)"><path d="M0.584,-0.25l-0.334,0l0,0.084c0,0.022 0.008,0.041 0.024,0.058c0.017,0.016 0.036,0.024 0.06,0.024l0.083,0c0.055,0 0.083,-0.027 0.083,-0.082l0.084,0c-0.013,0.111 -0.069,0.166 -0.167,0.166l-0.167,0c-0.046,0 -0.085,-0.016 -0.117,-0.049c-0.033,-0.033 -0.049,-0.072 -0.049,-0.117l0,-0.25c0,-0.047 0.016,-0.086 0.049,-0.119c0.033,-0.032 0.072,-0.049 0.117,-0.049l0.167,0c0.046,0 0.085,0.017 0.118,0.05c0.032,0.033 0.049,0.072 0.049,0.118l0,0.166Zm-0.334,-0.084l0.167,0l0,-0.082c0,-0.023 -0.008,-0.043 -0.025,-0.059c-0.016,-0.017 -0.036,-0.025 -0.058,-0.025c-0.023,0 -0.043,0.008 -0.059,0.025c-0.017,0.016 -0.025,0.036 -0.025,0.059l0,0.082Z" style="fill:#fff;fill-rule:nonzero;"/></g><g transform="matrix(113.08,0,0,113.08,550.167,252)"><path d="M0.167,-0.75l0.167,0l0,0.166l0.083,0l0,0.084l-0.083,0l0,0.334c0,0.026 0.008,0.047 0.026,0.061c0.018,0.014 0.034,0.021 0.049,0.021l0.008,0l0,0.084l-0.083,0c-0.046,0 -0.085,-0.016 -0.118,-0.049c-0.033,-0.033 -0.049,-0.072 -0.049,-0.117l0,-0.334l-0.083,0l0,-0.084l0.083,0l0,-0.166Z" style="fill:#fff;fill-rule:nonzero;"/></g><g transform="matrix(113.08,0,0,113.08,606.707,252)"><path d="M0.084,0l0,-0.75l0.416,0l0,0.084l-0.25,0l0,0.25l0.167,0l0,0.082l-0.167,0l0,0.334l-0.166,0Z" style="fill:#e52d2d;fill-rule:nonzero;"/></g><g transform="matrix(113.08,0,0,113.08,659.13,252)"><rect x="0.166" y="-0.75" width="0.167" height="0.75" style="fill:#e52d2d;fill-rule:nonzero;"/></g><g transform="matrix(113.08,0,0,113.08,702.1,252)"><path d="M0.5,-0.584l-0.083,0c-0.007,-0.055 -0.033,-0.083 -0.079,-0.083c-0.029,0 -0.051,0.007 -0.066,0.021c-0.015,0.014 -0.022,0.035 -0.022,0.063c0,0.021 0.008,0.04 0.025,0.058l0.176,0.199c0.033,0.036 0.049,0.075 0.049,0.117l0,0.043c0,0.045 -0.016,0.084 -0.049,0.117c-0.032,0.033 -0.072,0.049 -0.117,0.049l-0.084,0c-0.055,0 -0.097,-0.014 -0.125,-0.042c-0.027,-0.028 -0.041,-0.069 -0.041,-0.124l0.083,0c0,0.005 -0.001,0.01 -0.001,0.013c0,0.023 0.009,0.04 0.027,0.052c0.017,0.012 0.036,0.017 0.057,0.017c0.03,0 0.051,-0.007 0.064,-0.021c0.013,-0.014 0.02,-0.035 0.02,-0.063c0,-0.021 -0.009,-0.04 -0.025,-0.058l-0.177,-0.198c-0.032,-0.036 -0.048,-0.075 -0.048,-0.117l0,-0.043c0,-0.045 0.016,-0.084 0.048,-0.117c0.033,-0.033 0.072,-0.049 0.118,-0.049l0.084,0c0.104,0 0.159,0.055 0.166,0.166Z" style="fill:#e52d2d;fill-rule:nonzero;"/></g></g></g></svg>