<?xml version="1.0" encoding="UTF-8" standalone="no"?><!DOCTYPE svg PUBLIC "-//W3C//DTD SVG 1.1//EN" "http://www.w3.org/Graphics/SVG/1.1/DTD/svg11.dtd"><svg width="100%" height="100%" viewBox="0 0 800 200" version="1.1" xmlns="http://www.w3.org/2000/svg" xmlns:xlink="http://www.w3.org/1999/xlink" xml:space="preserve" xmlns:serif="http://www.serif.com/" style="fill-rule:evenodd;clip-rule:evenodd;stroke-linejoin:round;stroke-miterlimit:2;"><g><g><path d="M162.769,70.868l22.307,22.308l0,-22.308l-22.307,0Z" style="fill:#e52d2d;fill-rule:nonzero;"/><path d="M128.427,70.868l-29.097,0l36.917,36.918l-34.342,0l-36.917,-36.918l-30.919,0l36.918,36.918l-34.342,0l-31.884,-31.884c-0.379,0.934 -0.592,1.953 -0.592,3.023l0,100.249c0,5.588 4.53,10.118 10.118,10.118l160.671,0c5.588,0 10.118,-4.53 10.118,-10.118l0,-71.388l-19.732,0l-36.917,-36.918Z" style="fill:#e52d2d;fill-rule:nonzero;"/><path d="M154.641,10.708l-30.599,4.434l-31.243,41.828l30.6,-4.433l31.242,-41.829Z" style="fill:#e52d2d;fill-rule:nonzero;"/><path d="M90.055,20.066l-28.797,4.171l-31.243,41.829l28.797,-4.172l31.243,-41.828Z" style="fill:#e52d2d;fill-rule:nonzero;"/><path d="M182.963,35.766l-2.718,-18.76l-22.86,30.607l18.759,-2.718c4.404,-0.638 7.457,-4.724 6.819,-9.129Z" style="fill:#e52d2d;fill-rule:nonzero;"/><path d="M27.271,29.161l-19.511,2.827c-4.403,0.638 -7.456,4.725 -6.818,9.129l2.481,17.122l0.346,2.389l8.072,-10.808l15.43,-20.659Z" style="fill:#e52d2d;fill-rule:nonzero;"/></g><g transform="matrix(1.50262,0,0,1.50262,-340.809,-214.943)"><text x="390px" y="252px" style="font-family:'Krungthep';font-size:113.08px;fill:#fff;">Net</text><text x="606.707px" y="252px" style="font-family:'Krungthep';font-size:113.08px;fill:#e52d2d;">F<tspan x="659.13px 702.1px " y="252px 252px ">IS</tspan></text></g></g></svg>